<svg width="100" height="84" viewBox="0 0 100 84" fill="none" xmlns="http://www.w3.org/2000/svg">
    <path d="M38.7968 5.43741C31.2703 1.8304 20.7504 0.0634956 6.66612 0.00076514C5.33783 -0.0173491 4.03561 0.371437 2.9331 1.11528C2.02815 1.72926 1.28737 2.55705 0.775923 3.52583C0.264474 4.49461 -0.00197559 5.57471 1.1028e-05 6.67111V66.4951C1.1028e-05 70.5391 2.86644 73.5899 6.66612 73.5899C21.4711 73.5899 36.322 74.9783 45.2171 83.4177C45.3387 83.5336 45.4917 83.6112 45.6569 83.6406C45.8221 83.6701 45.9923 83.6501 46.1463 83.5833C46.3003 83.5165 46.4314 83.4057 46.5232 83.2647C46.615 83.1237 46.6636 82.9588 46.6628 82.7903V12.3001C46.6631 11.8245 46.5618 11.3544 46.3656 10.9215C46.1693 10.4886 45.8828 10.1031 45.5254 9.7909C43.4879 8.04247 41.2246 6.57808 38.7968 5.43741ZM97.0586 1.109C95.9555 0.367015 94.6532 -0.0196004 93.3255 0.00076514C79.2413 0.0634956 68.7214 1.82204 61.1949 5.43741C58.7672 6.57601 56.5033 8.03752 54.4642 9.78254C54.1076 10.0953 53.8217 10.481 53.6259 10.9138C53.4301 11.3466 53.3288 11.8164 53.3289 12.2918V82.7862C53.3288 82.948 53.3763 83.1063 53.4655 83.2411C53.5546 83.376 53.6815 83.4814 53.8301 83.5442C53.9788 83.6069 54.1425 83.6242 54.3009 83.5939C54.4593 83.5636 54.6052 83.487 54.7204 83.3737C60.0679 78.0417 69.4525 73.5836 93.3339 73.5857C95.1018 73.5857 96.7974 72.8807 98.0475 71.6259C99.2977 70.371 100 68.6691 100 66.8944V6.6732C100.002 5.57463 99.7353 4.49236 99.2224 3.52195C98.7094 2.55153 97.9662 1.72283 97.0586 1.109Z" fill="#34D39A"/>
</svg>
