<svg width="128" height="148" viewBox="0 0 128 148" fill="none" xmlns="http://www.w3.org/2000/svg">
    <path d="M72.1515 7.17662C72.2862 9.42104 71.6942 11.5218 70.3757 13.479C66.744 18.1499 59.7665 17.6421 56.7826 12.6094C54.4504 8.67333 55.6927 3.59451 59.614 1.23978C64.8462 -1.896 71.1112 1.22055 72.1515 7.17662Z" fill="#014DE0"/>
    <path d="M87.2346 24.0752C87.2193 24.1188 87.1914 24.1534 87.1507 24.1791C82.8877 26.7288 77.8842 29.6581 72.1401 32.967C69.7443 34.3444 68.0219 35.1768 66.9726 35.4641C64.1793 36.2259 60.9478 35.9719 58.3946 34.4637C55.5212 32.7682 52.6263 31.1112 49.7098 29.4926C41.9472 25.1833 33.9522 20.5162 27.0699 16.3608C25.9902 15.7093 25.1468 14.7717 24.5396 13.5482C23.0076 10.4663 25.2065 5.81072 29.0287 6.28782C29.7629 6.38016 30.7651 6.79826 32.0354 7.54213C40.884 12.7171 49.6374 18.1538 58.5775 23.1402C61.1383 24.569 63.7347 24.9743 66.3667 24.3561C67.4414 24.1021 69.0597 23.3378 71.2217 22.0629C79.0147 17.4574 86.0952 13.3905 96.068 7.25356C97.0918 6.62512 97.967 6.2814 98.6936 6.22241C100.18 6.10441 101.422 6.62768 102.421 7.79222C104.509 10.229 104.447 12.6979 102.234 15.1988C101.81 15.6785 100.877 16.3262 99.4367 17.1419C93.4741 20.5175 89.6582 22.6926 87.9891 23.6674C87.7376 23.8136 87.5293 23.9098 87.3641 23.9559C87.3006 23.9739 87.2574 24.0136 87.2346 24.0752Z" fill="#014DE0"/>
    <path d="M108.929 31.8974C96.7349 38.9179 84.5124 45.8872 72.262 52.8051C67.0717 55.737 61.7024 55.9871 56.5121 53.1322C47.4678 48.1611 38.496 43.0592 29.5965 37.8265C23.4497 34.2059 17.1619 30.8393 10.9618 27.3187C5.4933 24.2137 9.1669 15.1373 15.1765 17.8498C16.0682 18.25 17.2051 18.872 18.5872 19.7159C25.1798 23.7405 31.9287 27.5265 38.6242 31.3741C45.1407 35.1139 52.0763 39.3232 58.1621 42.6667C61.6566 44.5905 64.9949 45.1792 68.6151 43.3324C72.0029 41.6048 76.0309 39.0385 78.4431 37.6495C89.7129 31.183 100.984 24.7165 112.256 18.25C117.957 14.9757 122.843 23.3788 117.85 26.7878C115.408 28.4538 111.566 30.3776 108.929 31.8974Z" fill="#014DE0"/>
    <path d="M48.1741 56.5796L48.1055 70.6349C48.1055 70.7349 48.1245 70.8311 48.1626 70.9234C48.1931 70.9978 48.2084 71.0773 48.2084 71.162C48.1372 93.7037 48.1156 116.244 48.1436 138.783C48.1461 140.494 48.1194 141.588 48.0635 142.065C43.5325 139.534 38.9787 136.779 34.581 134.359C29.096 131.34 23.6517 128.249 18.248 125.086C15.3099 123.37 11.6363 121.55 9.03733 119.888C4.66255 117.097 1.88575 113.312 0.706951 108.534C0.320791 106.969 0.115011 104.419 0.0896055 100.885C-0.0425016 81.9365 -0.0285344 62.9884 0.131519 44.0403C0.164545 40.3082 1.64694 37.5033 4.57871 35.6257C7.93601 33.4749 10.9961 35.0024 14.159 36.8146C25.5685 43.358 36.9068 49.9464 48.1741 56.5796Z" fill="#014DE0"/>
    <path d="M79.7426 142.188L79.6207 56.6219C87.0771 52.3434 94.6237 48.0085 102.261 43.6171C105.77 41.5971 111.201 38.2882 115.785 35.7988C118.478 34.3367 121.092 34.4445 123.628 36.122C127.08 38.4075 127.987 42.0588 127.991 46.0565C128.014 64.4274 127.993 82.7996 127.93 101.173C127.922 103.697 127.775 105.744 127.488 107.314C126.644 111.936 124.491 115.663 121.029 118.495C119.583 119.675 117.755 120.888 115.545 122.135C103.701 128.814 91.7504 135.232 80.0208 142.127C79.8963 142.199 79.8036 142.219 79.7426 142.188Z" fill="#014DE0"/>
    <path d="M48.1741 56.5796C51.1808 58.4534 55.99 61.543 60.2543 62.3202C64.8526 63.159 69.1829 62.4677 73.2452 60.2464C75.2725 59.1383 77.3977 57.9301 79.6207 56.6219L79.7426 142.188C76.3663 144.164 73.9248 145.487 72.4183 146.159C67.1518 148.514 60.7687 148.71 55.5898 146.163C53.5574 145.163 51.0487 143.797 48.0635 142.065C48.1194 141.588 48.1461 140.494 48.1436 138.783C48.1156 116.244 48.1372 93.7037 48.2084 71.162C48.2084 71.0773 48.1931 70.9978 48.1626 70.9234C48.1245 70.8311 48.1055 70.7349 48.1055 70.6349L48.1741 56.5796ZM57.762 128.041C57.7671 130.575 57.7709 133.126 57.7734 135.694C57.776 136.199 57.9005 136.588 58.1469 136.86C59.4502 138.306 64.7624 138.156 66.7211 137.921C67.7844 137.794 68.779 137.46 69.5907 136.86C69.6958 136.781 69.7812 136.678 69.8401 136.56C69.899 136.442 69.9297 136.311 69.9298 136.178L69.9146 128.337L70.1127 72.7049C70.1127 72.6096 70.0755 72.5182 70.0092 72.4505C69.9428 72.3827 69.8527 72.3442 69.7583 72.3432L58.105 72.2855C57.95 72.2855 57.8725 72.3624 57.8725 72.5163L57.762 128.041Z" fill="#014DE0"/>
    <path d="M57.762 128.041C61.7608 128.928 65.8116 129.027 69.9146 128.337L69.9298 136.178C69.9297 136.311 69.899 136.442 69.8401 136.56C69.7812 136.678 69.6958 136.781 69.5907 136.86C68.779 137.46 67.7844 137.794 66.7211 137.921C64.7624 138.156 59.4502 138.306 58.1469 136.86C57.9005 136.588 57.776 136.199 57.7734 135.694C57.7709 133.126 57.7671 130.575 57.762 128.041Z" fill="#014DE0"/>
</svg>
